<svg width="100" height="100" viewBox="0 0 100 100" xmlns="http://www.w3.org/2000/svg">
  <path d="M25 30 C15 45 15 65 30 78" fill="none" stroke="#2E9E5B" stroke-width="6" stroke-linecap="round"/>
  <path d="M75 30 C85 45 85 65 70 78" fill="none" stroke="#2E9E5B" stroke-width="6" stroke-linecap="round"/>
  <g fill="#2E9E5B">
    <ellipse cx="22" cy="38" rx="7" ry="4" transform="rotate(-30 22 38)"/>
    <ellipse cx="18" cy="52" rx="7" ry="4" transform="rotate(-10 18 52)"/>
    <ellipse cx="20" cy="66" rx="7" ry="4" transform="rotate(20 20 66)"/>
    <ellipse cx="78" cy="38" rx="7" ry="4" transform="rotate(30 78 38)"/>
    <ellipse cx="82" cy="52" rx="7" ry="4" transform="rotate(10 82 52)"/>
    <ellipse cx="80" cy="66" rx="7" ry="4" transform="rotate(-20 80 66)"/>
  </g>
  <path d="M55 22 L40 52 L52 52 L45 78 L68 45 L54 45 Z" fill="#F6B93B"/>
</svg>
